# xmcd
#
# Track frame offsets:
# 150
# 20152
# 38247
# 49217
# 57837
# 74600
# 94260
# 107457
# 122035
# 135500
# 149525
# 168657
# 189597
# 211877
#
# Disc length: 3118 seconds
#
#
# Revision: 0
# Processed by: cddbd v1.5.2PL0 Copyright (c) Steve Scherf et al.
# Submitted via: Nero 7, 11, 10, 0 
#
DISCID=d40c2c0e
DTITLE=Bobby Hinton - Singing The Blues
DYEAR=2001
DGENRE=Blues
TTITLE0=Are You Happy?
TTITLE1=Today I Sing The Blues
TTITLE2=The Clock
TTITLE3=4.59 AM 
TTITLE4=My Baby Likes A Big Man
TTITLE5=Dry Your Eyes
TTITLE6=Sugar Daddy
TTITLE7=We Can't Make It
TTITLE8=I've Got News For You
TTITLE9=Crazy
TTITLE10=Members Only
TTITLE11=Out On The Town
TTITLE12=Cocaine
TTITLE13=Changes
EXTD=
EXTT0=Are You Happy?
EXTT1=Today I Sing The Blues
EXTT2=The Clock
EXTT3=4.59 AM 
EXTT4=My Baby Likes A Big Man
EXTT5=Dry Your Eyes
EXTT6=Sugar Daddy
EXTT7=We Can't Make It
EXTT8=I've Got News For You
EXTT9=Crazy
EXTT10=Members Only
EXTT11=Out On The Town
EXTT12=Cocaine
EXTT13=Changes
PLAYORDER=
